<svg xmlns="http://www.w3.org/2000/svg" id="motorbike" width="118.486" height="74.325" viewBox="0 0 118.486 74.325"><path id="Path_8" fill="#77899b" d="M115.862,140.982a1.736,1.736,0,1,0-2.993,1.758,15.625,15.625,0,1,1-27.769,1.57l4.612,4.386a9.879,9.879,0,1,0,7.25-7.621L92.35,136.69a15.611,15.611,0,0,1,17.17,2.059,1.736,1.736,0,0,0,2.253-2.641,19.085,19.085,0,0,0-22.064-1.93l-2.135-2.031a21.6,21.6,0,0,1,10.713-2.829,22,22,0,0,1,3.451.274,1.734,1.734,0,0,0,1.41-.4l5.477-4.743a6.982,6.982,0,0,0,1.944-2.75c1.463-3.76,1.535-10.858-1.255-14.044-7.651-8.739-19.006-13.041-31.97-12.116a4.308,4.308,0,0,0-3.38,6.5l.763,1.282H71.105a1.736,1.736,0,0,0,0,3.471h5.6a12.5,12.5,0,0,1,1.118,5.635,19.216,19.216,0,0,0-28.421,3.3H36.908a4.343,4.343,0,0,1-2.71-.954l-12.7-10.2a1.736,1.736,0,0,0-1.087-.383H10.028a5.225,5.225,0,0,0-3.048,9.468l3.736,2.683a1.736,1.736,0,1,0,2.025-2.82l-3.736-2.683a1.753,1.753,0,0,1,1.023-3.178H19.8l12.224,9.821a7.825,7.825,0,0,0,4.884,1.719H50.046l11.239,4.3,6.186,2.365A18.632,18.632,0,0,1,56.2,129.683H52.388A10.717,10.717,0,0,0,43,135.256L40.134,133.2h0L17.447,116.9a1.736,1.736,0,1,0-2.025,2.819L35.99,134.493l-3.741,2.3a19.126,19.126,0,1,0,5.336,9.065l4.108-2.528v13.012a9.007,9.007,0,0,0,9,9h8.362v.926H47.728a1.736,1.736,0,1,0,0,3.471H60.788A1.735,1.735,0,0,0,62.523,168v-2.662H78.448a1.736,1.736,0,0,0,1.466-2.665,21.722,21.722,0,0,1,.028-23.27l2.518,2.394a19.1,19.1,0,1,0,33.4-.818Zm-10.075,9.658a6.4,6.4,0,0,1-12.664,1.3l2.641,2.512a5.259,5.259,0,1,0,7.248-7.622l-2.641-2.512A6.408,6.408,0,0,1,105.786,150.64Zm1.492-39.8c1.308,2.879.906,7.8-.026,9.791a4.964,4.964,0,0,1,.026-9.791Zm-42.193.242a15.63,15.63,0,0,1,11.9,5.435c-1.742,4.519-5.147,6.079-6.129,6.925L56.376,117.9l-3.3-1.262A15.663,15.663,0,0,1,65.085,111.077Zm-23.264,27.6c-.027.167-.053.351-.074.542L26.32,148.715l-.017.01-5.195,3.2a1.788,1.788,0,1,1-1.833-3.071l5.445-3.35.015-.009,8.122-5,.009-.006,6.181-3.8Zm-26.14,14.425a5.269,5.269,0,0,0,7.233,1.78l1.733-1.066a6.4,6.4,0,1,1-4.617-9.508l-2.56,1.575a5.259,5.259,0,0,0-1.789,7.22Zm19.044-2.466a15.644,15.644,0,1,1-5.564-11.946l-5.336,3.282a9.869,9.869,0,1,0,5.128,9.194l5.5-3.387A15.569,15.569,0,0,1,34.725,150.64ZM75.511,161.87H50.689a5.531,5.531,0,0,1-5.525-5.525V140.379a7.241,7.241,0,0,1,6.046-7.126c3.095-.516,10.037,1.338,17.774-4.205,5.472-3.922,10.438-6.425,11.976-13.778a15.985,15.985,0,0,0-.528-8.477h2.056a1.736,1.736,0,1,0,0-3.471H78.767l-1.819-3.057A.836.836,0,0,1,77.592,99c10.817-.773,20.371,2.4,27.216,8.96a8.433,8.433,0,0,0-.26,15.426l-3.074,2.662a25.217,25.217,0,0,0-28.4,25.008A25.164,25.164,0,0,0,75.511,161.87Zm9.13-27.721,3.658,3.479,0,0,12.316,11.712a1.788,1.788,0,0,1-2.465,2.592l-12.314-11.71-.011-.011-3.78-3.6A21.96,21.96,0,0,1,84.641,134.149Z" data-name="Path 8" transform="translate(0 -95.413)"/><path id="Path_9" fill="#77899b" d="M233.68,340.71h-4.985a1.736,1.736,0,1,0,0,3.471h4.985a1.736,1.736,0,1,0,0-3.471Z" data-name="Path 9" transform="translate(-174.437 -283.944)"/></svg>