<svg xmlns="http://www.w3.org/2000/svg" id="padlock" width="74" height="74" viewBox="0 0 74 74"><g id="Group_2" data-name="Group 2" transform="translate(60.992 17.488)"><g id="Group_1" data-name="Group 1"><path id="Path_10" fill="#77899b" d="M434.773,122.2a2.168,2.168,0,0,0-2.909-.97l-8.672,4.336a2.168,2.168,0,0,0,1.939,3.878L433.8,125.1A2.168,2.168,0,0,0,434.773,122.2Z" data-name="Path 10" transform="translate(-421.994 -120.997)"/></g></g><g id="Group_4" data-name="Group 4" transform="translate(60.992 39.168)"><g id="Group_3" data-name="Group 3"><path id="Path_11" fill="#77899b" d="M433.8,275.562l-8.672-4.336a2.168,2.168,0,0,0-1.939,3.878l8.672,4.336a2.168,2.168,0,0,0,1.939-3.878Z" data-name="Path 11" transform="translate(-421.994 -270.997)"/></g></g><g id="Group_6" data-name="Group 6" transform="translate(0 0)"><g id="Group_5" data-name="Group 5"><path id="Path_12" fill="#77899b" d="M50.008,34.833H17.344V23.849a10.912,10.912,0,0,1,21.824,0v4.336a2.168,2.168,0,0,0,2.168,2.168h8.672a2.168,2.168,0,0,0,2.168-2.168V23.849a23.92,23.92,0,0,0-47.84,0V35.206A6.514,6.514,0,0,0,0,41.337V67.5A6.511,6.511,0,0,0,6.5,74h43.5a6.511,6.511,0,0,0,6.5-6.5V41.337A6.511,6.511,0,0,0,50.008,34.833ZM8.672,23.849a19.584,19.584,0,0,1,39.168,0v2.168H43.5V23.849a15.248,15.248,0,0,0-30.5,0V34.833H8.672ZM52.176,67.5a2.17,2.17,0,0,1-2.168,2.168H6.5A2.17,2.17,0,0,1,4.336,67.5V41.337A2.17,2.17,0,0,1,6.5,39.169h43.5a2.17,2.17,0,0,1,2.168,2.168Z" data-name="Path 12" transform="translate(0 -0.001)"/></g></g><g id="Group_8" data-name="Group 8" transform="translate(21.824 43.504)"><g id="Group_7" data-name="Group 7"><path id="Path_13" fill="#77899b" d="M157.5,301a6.5,6.5,0,0,0-2.168,12.635v7.021a2.168,2.168,0,0,0,4.336,0v-7.021A6.5,6.5,0,0,0,157.5,301Zm0,8.672a2.168,2.168,0,1,1,2.168-2.168A2.17,2.17,0,0,1,157.5,309.672Z" data-name="Path 13" transform="translate(-150.999 -301)"/></g></g><g id="Group_10" data-name="Group 10" transform="translate(60.992 30.496)"><g id="Group_9" data-name="Group 9"><path id="Path_14" fill="#77899b" d="M432.837,211h-8.672a2.168,2.168,0,0,0,0,4.336h8.672a2.168,2.168,0,1,0,0-4.336Z" data-name="Path 14" transform="translate(-421.997 -211)"/></g></g></svg>