<svg id="driving-license" xmlns="http://www.w3.org/2000/svg" width="97.149" height="74" viewBox="0 0 97.149 74">
  <path id="Path_1" data-name="Path 1" d="M88.61,61H8.538A8.548,8.548,0,0,0,0,69.538v56.923A8.548,8.548,0,0,0,8.538,135H88.61a8.548,8.548,0,0,0,8.538-8.538V69.538A8.548,8.548,0,0,0,88.61,61Zm2.846,65.462a2.849,2.849,0,0,1-2.846,2.846H8.538a2.849,2.849,0,0,1-2.846-2.846V69.538a2.849,2.849,0,0,1,2.846-2.846H88.61a2.849,2.849,0,0,1,2.846,2.846Z" transform="translate(0 -61)" fill="#77899b"/>
  <path id="Path_2" data-name="Path 2" d="M97.042,181H62.888a2.846,2.846,0,0,0-2.846,2.846V218a2.846,2.846,0,0,0,2.846,2.846H97.042A2.846,2.846,0,0,0,99.888,218V183.846A2.846,2.846,0,0,0,97.042,181ZM94.2,186.692v26.874a14.865,14.865,0,0,0-7.189-8.96,8.538,8.538,0,1,0-14.084,0,14.865,14.865,0,0,0-7.189,8.961V186.692ZM79.965,202.631a2.846,2.846,0,1,1,2.846-2.846A2.849,2.849,0,0,1,79.965,202.631Zm0,5.882a9.122,9.122,0,0,1,8.765,6.641H71.2A9.122,9.122,0,0,1,79.965,208.513Z" transform="translate(-48.649 -158.231)" fill="#77899b"/>
  <path id="Path_3" data-name="Path 3" d="M326.036,180H302.887a2.846,2.846,0,0,0,0,5.692h23.149a2.846,2.846,0,1,0,0-5.692Z" transform="translate(-243.11 -157.421)" fill="#77899b"/>
  <path id="Path_4" data-name="Path 4" d="M326.036,240H302.887a2.846,2.846,0,0,0,0,5.692h23.149a2.846,2.846,0,1,0,0-5.692Z" transform="translate(-243.11 -206.037)" fill="#77899b"/>
  <path id="Path_5" data-name="Path 5" d="M319.774,302.847A2.846,2.846,0,0,0,316.928,300H302.887a2.846,2.846,0,0,0,0,5.692h14.041A2.846,2.846,0,0,0,319.774,302.847Z" transform="translate(-243.11 -254.652)" fill="#77899b"/>
  <path id="Path_6" data-name="Path 6" d="M390.834,361h-7.946a2.846,2.846,0,0,0,0,5.692h7.946a2.846,2.846,0,0,0,0-5.692Z" transform="translate(-307.931 -304.078)" fill="#77899b"/>
  <path id="Path_7" data-name="Path 7" d="M131.508,121h-68.7a2.846,2.846,0,1,0,0,5.692h68.7a2.846,2.846,0,1,0,0-5.692Z" transform="translate(-48.582 -109.615)" fill="#77899b"/>
</svg>
